<svg width="27" height="33" viewBox="0 0 27 33" fill="none" xmlns="http://www.w3.org/2000/svg">
<path d="M26.4759 13.8378C26.5983 13.0629 26.6747 12.2133 26.6939 11.2606C26.6866 7.17568 24.7311 5.73023 24.3548 5.0526C24.909 1.95747 24.2631 0.549596 23.9627 0.0676413C22.8546 -0.325645 20.1077 1.08271 18.6068 2.07413C16.1597 1.35782 10.9883 1.42773 9.04901 2.25954C5.47082 -0.302616 3.5783 0.0880503 3.5783 0.0880503C3.5783 0.0880503 2.3548 2.28201 3.25486 5.49167C2.07755 6.99193 1.20003 8.05265 1.20003 10.8662C1.20003 11.54 1.24189 12.1768 1.3129 12.7894C2.3268 18.1204 6.55098 20.4203 10.7003 20.8169C10.0759 21.2913 9.32632 22.1892 9.22262 23.2295C8.43805 23.7368 6.85987 23.9045 5.63264 23.5186C3.91312 22.9753 3.25486 19.5702 0.679812 20.0559C0.122633 20.1602 0.233366 20.5277 0.715873 20.841C1.50038 21.3498 2.23924 21.9824 2.80876 23.3359C3.24617 24.3751 4.16616 26.2306 7.07485 26.2306C8.22955 26.2306 9.03832 26.0941 9.03832 26.0941C9.03832 26.0941 9.06032 28.7422 9.06032 29.775C9.06032 30.9635 7.45628 31.2972 7.45628 31.8674C7.45628 32.0942 7.98719 32.1157 8.41385 32.1157C9.25703 32.1157 11.0114 31.4134 11.0114 30.178C11.0114 29.1964 11.027 25.8976 11.027 25.3199C11.027 24.0576 11.7035 23.6557 11.7035 23.6557C11.7035 23.6557 11.7863 30.3939 11.5407 31.2973C11.2527 32.3597 10.731 32.2087 10.731 32.6815C10.731 33.3871 12.84 32.854 13.5396 31.3096C14.0808 30.1034 13.8384 23.4955 13.8384 23.4955L14.4026 23.4833C14.4026 23.4833 14.4091 26.5096 14.3897 27.8922C14.3693 29.3242 14.2216 31.1345 15.0721 31.9889C15.6304 32.5509 17.3408 33.5369 17.3408 32.6358C17.3408 32.1136 16.1431 31.682 16.1431 30.2672V23.7496C16.8707 23.7496 17.0211 25.8919 17.0211 25.8919L17.2833 29.8722C17.2833 29.8722 17.1092 31.3246 18.8524 31.9307C19.4677 32.1463 20.7842 32.2049 20.8459 31.8431C20.9077 31.4804 19.2607 30.9441 19.2451 29.82C19.2366 29.1353 19.2758 28.7346 19.2758 25.7565C19.2758 22.7801 18.8759 21.6791 17.4826 20.8016C21.5231 20.387 25.7198 18.5825 26.4759 13.8378Z" fill="white"/>
</svg>
