<svg width="135" height="121" viewBox="0 0 135 121" fill="none" xmlns="http://www.w3.org/2000/svg">
<g filter="url(#filter0_d)">
<path d="M125.708 14.125H102.778V5.29688C102.778 2.36152 100.419 0 97.4861 0H37.5139C34.5814 0 32.2222 2.36152 32.2222 5.29688V14.125H9.29167C6.3592 14.125 4 16.4865 4 19.4219V31.7812C4 39.6604 8.96094 47.7602 17.6481 54.0061C24.5934 59.016 33.038 62.1941 41.9016 63.2094C48.8248 74.708 56.9167 79.4531 56.9167 79.4531V95.3438H46.3333C38.5502 95.3438 32.2222 99.9123 32.2222 107.703V110.352C32.2222 111.808 33.4128 113 34.8681 113H100.132C101.587 113 102.778 111.808 102.778 110.352V107.703C102.778 99.9123 96.4498 95.3438 88.6667 95.3438H78.0833V79.4531C78.0833 79.4531 86.1752 74.708 93.0984 63.2094C101.984 62.1941 110.429 59.016 117.352 54.0061C126.017 47.7602 131 39.6604 131 31.7812V19.4219C131 16.4865 128.641 14.125 125.708 14.125ZM25.8943 42.5516C20.5144 38.6672 18.1111 34.3414 18.1111 31.7812V28.25H32.2663C32.4868 35.4449 33.5451 41.757 35.0885 47.2746C31.7592 46.127 28.6503 44.5379 25.8943 42.5516ZM116.889 31.7812C116.889 35.3346 112.986 39.7486 109.106 42.5516C106.35 44.5379 103.219 46.127 99.8894 47.2746C101.433 41.757 102.491 35.4449 102.712 28.25H116.889V31.7812Z" fill="#CB9C13"/>
</g>
<defs>
<filter id="filter0_d" x="0" y="0" width="135" height="121" filterUnits="userSpaceOnUse" color-interpolation-filters="sRGB">
<feFlood flood-opacity="0" result="BackgroundImageFix"/>
<feColorMatrix in="SourceAlpha" type="matrix" values="0 0 0 0 0 0 0 0 0 0 0 0 0 0 0 0 0 0 127 0"/>
<feOffset dy="4"/>
<feGaussianBlur stdDeviation="2"/>
<feColorMatrix type="matrix" values="0 0 0 0 0 0 0 0 0 0 0 0 0 0 0 0 0 0 0.25 0"/>
<feBlend mode="normal" in2="BackgroundImageFix" result="effect1_dropShadow"/>
<feBlend mode="normal" in="SourceGraphic" in2="effect1_dropShadow" result="shape"/>
</filter>
</defs>
</svg>
