<svg width="124" height="166" viewBox="0 0 124 166" fill="none" xmlns="http://www.w3.org/2000/svg">
<g clip-path="url(#clip0)">
<g filter="url(#filter0_d)">
<path d="M116.25 0H7.75C3.46974 0 0 3.48373 0 7.78125V12.9688C0 17.2663 3.46974 20.75 7.75 20.75C7.75 50.2426 24.2239 75.1325 46.7719 83C24.2239 90.8675 7.75 115.757 7.75 145.25C3.46974 145.25 0 148.734 0 153.031V158.219C0 162.516 3.46974 166 7.75 166H116.25C120.53 166 124 162.516 124 158.219V153.031C124 148.734 120.53 145.25 116.25 145.25C116.25 115.757 99.7761 90.8675 77.2281 83C99.7761 75.1325 116.25 50.2426 116.25 20.75C120.53 20.75 124 17.2663 124 12.9688V7.78125C124 3.48373 120.53 0 116.25 0ZM92.0061 124.5H31.9946C37.5032 109.328 48.8172 98.5625 62 98.5625C75.1818 98.5625 86.4971 109.325 92.0061 124.5ZM92.0122 41.5H31.9939C29.7045 35.1933 28.4167 28.1253 28.4167 20.75H95.5833C95.5833 28.1438 94.2959 35.2059 92.0122 41.5Z" fill="white"/>
<path d="M8.25 20.75V20.25H7.75C3.74778 20.25 0.5 16.992 0.5 12.9688V7.78125C0.5 3.75797 3.74778 0.5 7.75 0.5H116.25C120.252 0.5 123.5 3.75797 123.5 7.78125V12.9688C123.5 16.992 120.252 20.25 116.25 20.25H115.75V20.75C115.75 50.0726 99.373 74.7436 77.0634 82.5279L75.7104 83L77.0634 83.4721C99.373 91.2564 115.75 115.927 115.75 145.25V145.75H116.25C120.252 145.75 123.5 149.008 123.5 153.031V158.219C123.5 162.242 120.252 165.5 116.25 165.5H7.75C3.74778 165.5 0.5 162.242 0.5 158.219V153.031C0.5 149.008 3.74778 145.75 7.75 145.75H8.25V145.25C8.25 115.927 24.627 91.2564 46.9366 83.4721L48.2896 83L46.9366 82.5279C24.627 74.7436 8.25 50.0726 8.25 20.75ZM92.0061 125H92.7195L92.476 124.329C86.9298 109.052 75.4778 98.0625 62 98.0625C48.5211 98.0625 37.0705 109.054 31.5246 124.329L31.2811 125H31.9946H92.0061ZM92.0122 42H92.3627L92.4822 41.6705C94.786 35.3211 96.0833 28.2012 96.0833 20.75V20.25H95.5833H28.4167H27.9167V20.75C27.9167 28.1828 29.2144 35.3086 31.5239 41.6706L31.6435 42H31.9939H92.0122Z" stroke="white"/>
</g>
</g>
<defs>
<filter id="filter0_d" x="-4" y="0" width="132" height="174" filterUnits="userSpaceOnUse" color-interpolation-filters="sRGB">
<feFlood flood-opacity="0" result="BackgroundImageFix"/>
<feColorMatrix in="SourceAlpha" type="matrix" values="0 0 0 0 0 0 0 0 0 0 0 0 0 0 0 0 0 0 127 0"/>
<feOffset dy="4"/>
<feGaussianBlur stdDeviation="2"/>
<feColorMatrix type="matrix" values="0 0 0 0 0 0 0 0 0 0 0 0 0 0 0 0 0 0 0.25 0"/>
<feBlend mode="normal" in2="BackgroundImageFix" result="effect1_dropShadow"/>
<feBlend mode="normal" in="SourceGraphic" in2="effect1_dropShadow" result="shape"/>
</filter>
<clipPath id="clip0">
<rect width="124" height="166" fill="white"/>
</clipPath>
</defs>
</svg>
