<svg width="156" height="227" viewBox="0 0 156 227" fill="none" xmlns="http://www.w3.org/2000/svg">
<g clip-path="url(#clip0)">
<g filter="url(#filter0_d)">
<path d="M107.569 113.5L151.918 69.133C157.361 63.6886 157.361 54.8613 151.918 49.4124L142.062 39.5521C136.62 34.1076 127.796 34.1076 122.349 39.5521L78 83.9191L33.6508 39.5521C28.2085 34.1076 19.3848 34.1076 13.9381 39.5521L4.0817 49.4124C-1.36057 54.8569 -1.36057 63.6841 4.0817 69.133L48.4309 113.5L4.0817 157.867C-1.36057 163.311 -1.36057 172.139 4.0817 177.588L13.9381 187.448C19.3803 192.892 28.2085 192.892 33.6508 187.448L78 143.081L122.349 187.448C127.791 192.892 136.62 192.892 142.062 187.448L151.918 177.588C157.361 172.143 157.361 163.316 151.918 157.867L107.569 113.5Z" fill="#D52741"/>
<path d="M107.215 113.147L106.862 113.5L107.215 113.853L151.565 158.22C156.812 163.474 156.812 171.985 151.565 177.234L141.708 187.094C136.461 192.344 127.95 192.344 122.703 187.094L78.3536 142.727L78 142.374L77.6464 142.727L33.2972 187.094C28.0502 192.344 19.5387 192.344 14.2917 187.094L4.43547 177.234C4.43542 177.234 4.43538 177.234 4.43533 177.234C-0.811899 171.98 -0.811648 163.47 4.43533 158.22L48.7845 113.853L49.1379 113.5L48.7845 113.147L4.43547 68.7797C-0.811903 63.5259 -0.811697 55.015 4.43533 49.7659L14.2915 39.9057C14.2916 39.9057 14.2916 39.9056 14.2917 39.9056C19.5432 34.6563 28.0503 34.6566 33.2972 39.9056L77.6464 84.2725L78 84.6263L78.3536 84.2725L122.703 39.9057C122.703 39.9057 122.703 39.9056 122.703 39.9056C127.954 34.6563 136.461 34.6566 141.708 39.9056L151.565 49.7657C156.812 55.0195 156.812 63.5304 151.565 68.7795L107.215 113.147Z" stroke="#D52741"/>
</g>
</g>
<defs>
<filter id="filter0_d" x="-4" y="35.4688" width="164" height="164.062" filterUnits="userSpaceOnUse" color-interpolation-filters="sRGB">
<feFlood flood-opacity="0" result="BackgroundImageFix"/>
<feColorMatrix in="SourceAlpha" type="matrix" values="0 0 0 0 0 0 0 0 0 0 0 0 0 0 0 0 0 0 127 0"/>
<feOffset dy="4"/>
<feGaussianBlur stdDeviation="2"/>
<feColorMatrix type="matrix" values="0 0 0 0 0 0 0 0 0 0 0 0 0 0 0 0 0 0 0.25 0"/>
<feBlend mode="normal" in2="BackgroundImageFix" result="effect1_dropShadow"/>
<feBlend mode="normal" in="SourceGraphic" in2="effect1_dropShadow" result="shape"/>
</filter>
<clipPath id="clip0">
<rect width="156" height="227" fill="white"/>
</clipPath>
</defs>
</svg>
